<?xml version="1.0" encoding="UTF-8"?><svg id="Artwork" xmlns="http://www.w3.org/2000/svg" viewBox="0 0 1110 943"><defs><style>.cls-1{fill:none;}.cls-2{fill:#ff002d;}</style></defs><path class="cls-2" d="M250.48,696.73h20.98v10.19c6.8-7.98,16.84-12.12,29.4-12.12,14.04,0,24.53,4.73,31.47,14.04,8.57-9.46,20.24-14.04,35.31-14.04,24.23,0,38.56,14.04,38.56,37.68v38.12h-22.16v-37.97c0-13-7.09-18.91-22.31-18.91-10.49,0-18.03,2.95-22.31,8.72v48.17h-22.16v-37.97c0-13-7.09-18.91-22.31-18.91-10.49,0-18.03,2.95-22.31,8.72v48.17h-22.16v-73.88ZM417.29,733.67c0-22.75,18.17-38.86,43.74-38.86,13.45,0,26.3,4.58,34.28,12.12v-10.19h20.98v73.88h-20.98v-10.2c-7.98,7.54-20.83,12.12-34.28,12.12-25.56,0-43.74-16.1-43.74-38.86ZM494.13,743.42v-19.5c-6.21-6.65-16.1-10.19-28.52-10.19-16.4,0-26.15,7.54-26.15,19.95s9.75,19.95,26.15,19.95c12.41,0,22.31-3.55,28.52-10.19ZM531.06,696.73h20.98v10.19c7.98-7.54,20.83-12.12,34.28-12.12,25.56,0,43.73,16.1,43.73,38.86s-18.17,38.86-43.73,38.86c-13,0-25.41-4.58-33.1-12.12v34.72h-22.16v-98.4ZM607.9,733.67c0-12.41-9.75-19.95-26.15-19.95-12.41,0-22.31,3.55-28.52,10.19v19.5c6.21,6.65,16.1,10.19,28.52,10.19,16.4,0,26.15-7.54,26.15-19.95ZM679.7,665.26c9.16,0,17.14,1.03,24.38,3.1l-1.48,15.66c-8.72-1.33-16.4-2.07-20.69-2.07-13.45,0-18.62,3.69-18.62,13.3v1.48h32.95v17.73h-32.95v56.15h-22.16v-73.14c0-21.57,12.85-32.21,38.56-32.21ZM707.33,696.73h20.98v10.19c5.47-7.54,15.96-12.12,27.78-12.12,5.17,0,8.87.44,10.79,1.33l-1.77,19.06c-4.28-1.03-8.87-1.48-14.18-1.48-11.08,0-17.88,2.81-21.42,8.72v48.17h-22.16v-73.88ZM768.36,733.52c0-24.53,17.29-38.71,46.84-38.71,25.27,0,42.7,14.33,42.7,35.02,0,3.1-.3,5.61-.89,9.75h-67.67c1.48,10.64,10.34,15.22,29.55,15.22,11.52,0,24.38-2.66,32.8-6.94l7.83,14.04c-8.27,6.21-24.38,10.64-41.96,10.64-31.62,0-49.2-14.04-49.2-39.01ZM838.69,725.4c-1.48-9.46-9.46-14.33-23.49-14.33-16.4,0-24.23,4.28-25.86,14.33h49.35Z"/><path class="cls-2" d="M147.86,402.12c0-36.96,26.32-63.28,63.84-63.28,52.64,0,132.17,30.8,314.18,121.53l2.24-1.12c-64.96-53.2-100.81-118.16-100.81-184.25,0-71.12,56.56-127.13,128.25-127.13s127.69,56.56,127.69,127.13c0,133.29-179.77,279.45-344.42,279.45-96.89,0-190.97-75.04-190.97-152.33ZM580.76,491.16c181.45-115.93,257.61-152.33,318.1-152.33,36.96,0,63.28,26.32,63.28,63.28,0,77.28-94.09,152.33-190.97,152.33-51.52,0-103.61-17.36-190.41-63.28Z"/><rect class="cls-1" width="1110" height="943"/></svg>